<svg width="262" height="68" viewBox="0 0 262 68" fill="none" xmlns="http://www.w3.org/2000/svg">
<g clip-path="url(#clip0_2_6418)">
<path d="M96.7815 59.35L93.3409 51.3003H90.2674V65.3028H93.2043V59.7475L92.8884 57.0332H93.0848L93.7592 58.9526L95.7229 63.4679H97.917L99.855 58.978L100.538 57.0163H100.751L100.393 59.7305V65.3028H103.33V51.3003H100.256L96.7815 59.35Z" fill="#041E42"/>
<path d="M106.566 65.3028H116.153V62.4786H109.52V59.7051H115.607V56.881H109.52V54.1244H116.153V51.2749H106.566V65.3028Z" fill="#041E42"/>
<path d="M118.441 54.0653H122.454V65.3028H125.416V54.0653H129.446V51.2749H118.441V54.0653Z" fill="#041E42"/>
<path d="M134.449 51.3003L129.489 65.3028H132.631L133.809 62.0981H138.026L139.264 65.3028H142.338L137.267 51.3003H134.449ZM134.543 59.4261L135.346 56.399L135.781 54.3866H135.926L136.362 56.3821L137.267 59.4261H134.543Z" fill="#041E42"/>
<path d="M147.179 56.1285C146.923 59.8658 146.982 62.6731 144.165 62.5716V65.3028C148.579 65.6072 149.731 62.2418 149.979 58.403L150.235 54.0653H153.65V65.3028H156.604V51.3003H147.503L147.179 56.1285Z" fill="#041E42"/>
<path d="M162.171 56.1285C161.906 59.8658 161.966 62.6731 159.148 62.5716V65.3028C163.562 65.6072 164.723 62.2418 164.962 58.403L165.227 54.0653H168.642V65.3028H171.596V51.3003H162.486L162.171 56.1285Z" fill="#041E42"/>
<path d="M181.696 65.3028H184.633V54.0653H189.713V65.3028H192.675V51.3003H181.696V65.3028Z" fill="#041E42"/>
<path d="M201.341 51.0972C198.447 51.0972 195.569 52.6445 195.569 55.7731V60.8465C195.569 63.9497 198.464 65.514 201.366 65.514C204.269 65.514 207.138 63.9497 207.138 60.8465V55.7731C207.104 52.6615 204.244 51.0972 201.341 51.0972ZM204.218 60.838C204.218 62.1233 202.784 62.7744 201.366 62.7744C199.949 62.7744 198.489 62.1402 198.489 60.838V55.7647C198.489 54.4371 199.906 53.7861 201.324 53.7861C202.741 53.7861 204.218 54.3949 204.218 55.7647V60.838Z" fill="#041E42"/>
<path d="M215.061 62.6984C213.823 62.6984 212.704 62.005 212.704 60.8551V55.7817C212.704 54.6148 213.865 53.9215 215.12 53.9046C215.68 53.8745 216.236 53.9994 216.728 54.2652C217.22 54.5311 217.627 54.9274 217.904 55.4097L220.26 54.1413C219.815 53.228 219.115 52.4595 218.244 51.9262C217.373 51.393 216.366 51.1172 215.342 51.1311C212.542 51.1311 209.784 52.7123 209.784 55.7817V60.8551C209.784 63.9414 212.602 65.5057 215.342 65.5057C216.365 65.4846 217.366 65.2037 218.248 64.6899C219.13 64.1762 219.864 63.4468 220.379 62.5716L217.818 61.1679C217.547 61.6509 217.145 62.0498 216.658 62.32C216.171 62.5902 215.618 62.7212 215.061 62.6984Z" fill="#041E42"/>
<path d="M228.388 55.4689L227.525 57.5913H227.449L226.672 55.5704L224.691 51.3003H221.353L226.031 60.7959L223.948 65.3028H227.107L233.502 51.3003H230.266L228.388 55.4689Z" fill="#041E42"/>
<path d="M245.821 51.3003H236.985L236.643 56.1285C236.387 60.1195 236.464 62.5209 234.082 62.6562H233.877V68.0001H236.857V65.3028H244.208V68.0001H247.162V62.6562H245.821V51.3003ZM242.884 62.6562H238.53C239.064 61.3077 239.353 59.8764 239.384 58.4284L239.683 54.0906H242.876L242.884 62.6562Z" fill="#041E42"/>
<path d="M254.103 51.3003L249.151 65.3028H252.293L253.462 62.0981H257.68L258.918 65.3028H261.991L256.92 51.3003H254.103ZM254.205 59.4261L254.999 56.399L255.443 54.3866H255.58L256.024 56.3821L256.92 59.4261H254.205Z" fill="#041E42"/>
<path d="M102.169 44.7471H90.2162V0.0254344H102.169V16.9367H115.701V0.0254344H127.653V44.7471H115.701V27.8867H102.169V44.7471ZM209.281 20.9361C211.617 21.9415 213.543 23.6977 214.746 25.921C215.95 28.1443 216.362 30.7047 215.914 33.1883C214.719 40.3925 209.614 44.7471 199.198 44.7471H180.023V0.0254344H198.865C207.821 0.0254344 214.386 5.14108 214.121 13.6728C214.003 15.1908 213.497 16.6541 212.65 17.9248C211.803 19.1954 210.644 20.2318 209.281 20.9361ZM198.865 17.5539C204.636 17.5539 204.841 9.59719 198.865 9.59719H191.967V17.5539H198.865ZM198.865 34.8625C206.028 34.8625 205.9 25.7051 198.865 25.7051H191.967V34.8625H198.865ZM261.821 44.781H249.083L246.035 35.8096H233.493L230.573 44.781H217.835L234.227 0.0592512H245.036L261.821 44.781ZM243.175 25.7305L239.93 12.6581H239.598L236.182 25.7305H243.175ZM170.102 34.0508H148.536V27.8697H163.562C164.509 27.8744 165.435 27.5961 166.22 27.0711C167.004 26.5461 167.61 25.7989 167.959 24.9272L170.52 18.3826C170.559 18.2765 170.571 18.1627 170.556 18.0509C170.54 17.9391 170.497 17.8328 170.431 17.7412C170.365 17.6495 170.276 17.5753 170.175 17.525C170.073 17.4747 169.96 17.4498 169.846 17.4524H148.502V10.688H163.366C164.338 10.6954 165.29 10.411 166.097 9.87215C166.903 9.33332 167.525 8.56533 167.882 7.6693L170.486 0.955556C170.526 0.847415 170.539 0.731208 170.524 0.616976C170.509 0.502744 170.466 0.393912 170.398 0.299865C170.331 0.205818 170.242 0.129376 170.138 0.0771466C170.034 0.0249169 169.919 -0.00153321 169.803 6.86568e-05H136.686V0.21991V44.4174H163.844C164.791 44.4244 165.718 44.147 166.503 43.6217C167.288 43.0964 167.894 42.3479 168.241 41.4748L170.802 34.9302C170.834 34.825 170.839 34.7138 170.818 34.6059C170.798 34.4981 170.751 34.3968 170.682 34.3106C170.614 34.2244 170.525 34.1558 170.424 34.1106C170.323 34.0654 170.213 34.0449 170.102 34.0508Z" fill="#041E42"/>
<path d="M81.4737 1.91093L81.4823 1.73336V1.5558L81.4567 1.37823L81.414 1.20912L81.3542 1.04L81.2859 0.879348L81.192 0.735602L81.0896 0.600312L80.9786 0.481934L80.859 0.372011L80.7224 0.287455L80.5773 0.21981L80.4322 0.169076L80.2785 0.14371L80.1248 0.135254H1.35747L1.20379 0.14371L1.05012 0.169076L0.904979 0.21981L0.768378 0.287455L0.631778 0.372011L0.512252 0.481934L0.392727 0.600312L0.290276 0.735602L0.204901 0.879348L0.128063 1.04L0.0768379 1.20912L0.0341502 1.37823L0.00853754 1.5558L0 1.73336L0.00853754 1.91093L0.0426877 2.0885L0.0853754 2.26607L3.39794 12.9201L3.53454 13.3175L3.67968 13.715L3.85043 14.0955L4.02972 14.476L4.21754 14.8396L4.43098 15.2031L4.65296 15.5498L4.88347 15.8796L5.13106 16.2009L5.38719 16.5053L5.66039 16.8013L5.94213 17.0803L6.2324 17.3424L6.53122 17.5876L6.84711 17.8159L7.163 18.0273L7.49596 18.2303L7.82892 18.4078L8.17042 18.5685L8.52046 18.7122L8.8705 18.8391L9.22908 18.949L9.58766 19.0335L9.95477 19.1012L10.3219 19.1519L10.689 19.1773L11.0561 19.1857H70.4262L70.8018 19.1773L71.1689 19.1519L71.536 19.1012L71.8946 19.0335L72.2617 18.949L72.6203 18.8391L72.9704 18.7122L73.3119 18.5685L73.6619 18.4078L73.9949 18.2303L74.3193 18.0273L74.6437 17.8159L74.9511 17.5876L75.2499 17.3424L75.5487 17.0803L75.8304 16.8013L76.0951 16.5053L76.3598 16.2009L76.6073 15.8796L76.8379 15.5498L77.0598 15.2031L77.2647 14.8396L77.4611 14.476L77.6404 14.0955L77.8026 13.715L77.9563 13.3175L78.0843 12.9201L81.4737 1.91093Z" fill="url(#paint0_linear_2_6418)"/>
<path d="M81.4737 24.9863L81.4823 24.8087V24.6311L81.4567 24.4536L81.414 24.2845L81.3542 24.1154L81.2859 23.9547L81.192 23.811L81.0896 23.6757L80.9786 23.5573L80.859 23.4474L80.7224 23.3628L80.5773 23.2952L80.4322 23.2444L80.2785 23.2106L80.1248 23.2021H1.35747L1.20379 23.2106L1.05012 23.2444L0.904979 23.2952L0.768378 23.3628L0.631778 23.4474L0.512252 23.5573L0.392727 23.6757L0.290276 23.811L0.204901 23.9547L0.128063 24.1154L0.0768379 24.2845L0.0341502 24.4536L0.00853754 24.6311L0 24.8087L0.00853754 24.9863L0.0426877 25.1638L0.0853754 25.333L3.39794 35.987L3.53454 36.3929L3.67968 36.7903L3.85043 37.1793L4.02972 37.5513L4.21754 37.9149L4.43098 38.27L4.65296 38.6167L4.88347 38.9465L5.13106 39.2763L5.38719 39.5807L5.66039 39.8766L5.94213 40.1556L6.2324 40.4178L6.53122 40.663L6.84711 40.8913L7.163 41.1027L7.49596 41.3056L7.82892 41.4832L8.17042 41.6438L8.52046 41.7876L8.8705 41.9144L9.22908 42.0159L9.58766 42.1089L9.95477 42.1765L10.3219 42.2273L10.689 42.2526L11.0561 42.2611H70.4262L70.8018 42.2526L71.1689 42.2273L71.536 42.1765L71.8946 42.1089L72.2617 42.0159L72.6203 41.9144L72.9704 41.7876L73.3119 41.6438L73.6619 41.4832L73.9949 41.3056L74.3193 41.1027L74.6437 40.8913L74.9511 40.663L75.2499 40.4178L75.5487 40.1556L75.8304 39.8766L76.0951 39.5807L76.3598 39.2763L76.6073 38.9465L76.8379 38.6167L77.0598 38.27L77.2647 37.9149L77.4611 37.5513L77.6404 37.1793L77.8026 36.7903L77.9563 36.3929L78.0843 35.987L81.4737 24.9863Z" fill="url(#paint1_linear_2_6418)"/>
<path d="M81.4737 48.104L81.4823 47.9264V47.7404L81.4567 47.5713L81.414 47.3937L81.3542 47.2246L81.2859 47.0724L81.192 46.9202L81.0896 46.7933L80.9786 46.675L80.859 46.565L80.7224 46.4805L80.5773 46.4044L80.4322 46.3621L80.2785 46.3283L80.1248 46.3198H1.35747L1.20379 46.3283L1.05012 46.3621L0.904979 46.4044L0.768378 46.4805L0.631778 46.565L0.512252 46.675L0.392727 46.7933L0.290276 46.9202L0.204901 47.0724L0.128063 47.2246L0.0768379 47.3937L0.0341502 47.5713L0.00853754 47.7404L0 47.9264L0.00853754 48.104L0.0426877 48.2815L0.0853754 48.4506L3.39794 59.1047L3.53454 59.5106L3.67968 59.8995L3.85043 60.2885L4.02972 60.669L4.21754 61.0326L4.43098 61.3877L4.65296 61.7344L4.88347 62.0642L5.13106 62.3855L5.38719 62.6899L5.66039 62.9858L5.94213 63.2649L6.2324 63.527L6.53122 63.7722L6.84711 64.009L7.163 64.2203L7.49596 64.4148L7.82892 64.5924L8.17042 64.7615L8.52046 64.9053L8.8705 65.0321L9.22908 65.1336L9.58766 65.2181L9.95477 65.2858L10.3219 65.3365L10.689 65.3703L11.0561 65.3788H70.4262L70.8018 65.3703L71.1689 65.3365L71.536 65.2858L71.8946 65.2181L72.2617 65.1336L72.6203 65.0321L72.9704 64.9053L73.3119 64.7615L73.6619 64.5924L73.9949 64.4148L74.3193 64.2203L74.6437 64.009L74.9511 63.7722L75.2499 63.527L75.5487 63.2649L75.8304 62.9858L76.0951 62.6899L76.3598 62.3855L76.6073 62.0642L76.8379 61.7344L77.0598 61.3877L77.2647 61.0326L77.4611 60.669L77.6404 60.2885L77.8026 59.8995L77.9563 59.5106L78.0843 59.1047L81.4737 48.104Z" fill="url(#paint2_linear_2_6418)"/>
</g>
<defs>
<linearGradient id="paint0_linear_2_6418" x1="0" y1="9.65627" x2="81.4823" y2="9.65627" gradientUnits="userSpaceOnUse">
<stop stop-color="#C02B38"/>
<stop offset="0.39" stop-color="#D73241"/>
<stop offset="0.73" stop-color="#E83747"/>
</linearGradient>
<linearGradient id="paint1_linear_2_6418" x1="17.7922" y1="51.892" x2="63.2475" y2="5.99635" gradientUnits="userSpaceOnUse">
<stop stop-color="#BB2A36"/>
<stop offset="0.04" stop-color="#BF2B37"/>
<stop offset="0.31" stop-color="#DC2F41"/>
<stop offset="0.47" stop-color="#E73144"/>
<stop offset="1" stop-color="#E83747"/>
</linearGradient>
<linearGradient id="paint2_linear_2_6418" x1="27.508" y1="74.959" x2="50.8033" y2="30.7275" gradientUnits="userSpaceOnUse">
<stop stop-color="#B22833"/>
<stop offset="0.09" stop-color="#B72935"/>
<stop offset="0.34" stop-color="#C02B38"/>
<stop offset="0.37" stop-color="#C32B39"/>
<stop offset="0.72" stop-color="#DD2F41"/>
<stop offset="0.92" stop-color="#E73144"/>
</linearGradient>
<clipPath id="clip0_2_6418">
<rect width="262" height="68" fill="white"/>
</clipPath>
</defs>
</svg>
