<svg width="267" height="56" viewBox="0 0 267 56" fill="none" xmlns="http://www.w3.org/2000/svg">
<g clip-path="url(#clip0_2_6410)">
<path d="M256.56 3.23424H256.981L257.804 4.52649H258.469L257.571 3.19689C257.685 3.19602 257.798 3.17226 257.902 3.12703C258.007 3.08181 258.101 3.01606 258.179 2.93373C258.258 2.8514 258.318 2.75419 258.358 2.64794C258.397 2.54169 258.415 2.42861 258.409 2.31547C258.409 1.74404 258.067 1.3855 257.387 1.3855H256V4.52649H256.56V3.23424ZM256.56 2.74497V1.8897H257.226C257.526 1.8897 257.846 1.91585 257.846 2.28933C257.846 2.75245 257.564 2.76365 257.169 2.76365L256.56 2.74497Z" fill="#E2001A"/>
<path d="M257.113 5.34081C256.635 5.34229 256.168 5.20282 255.77 4.94009C255.372 4.67736 255.062 4.30318 254.878 3.86496C254.694 3.42674 254.646 2.94421 254.738 2.47849C254.831 2.01278 255.06 1.58485 255.398 1.24892C255.735 0.912985 256.166 0.684172 256.634 0.591469C257.103 0.498766 257.588 0.546348 258.029 0.72818C258.471 0.910012 258.848 1.21792 259.113 1.61288C259.378 2.00784 259.519 2.47208 259.518 2.94679C259.518 3.261 259.457 3.57222 259.336 3.86266C259.215 4.15309 259.038 4.41704 258.815 4.63939C258.591 4.86175 258.326 5.03815 258.034 5.15851C257.742 5.27886 257.429 5.34081 257.113 5.34081ZM257.113 9.61372e-06C256.526 -0.00146855 255.952 0.170096 255.463 0.492992C254.975 0.815889 254.594 1.27559 254.368 1.81392C254.143 2.35224 254.083 2.94497 254.196 3.51708C254.31 4.08919 254.592 4.61496 255.006 5.02782C255.42 5.44068 255.949 5.72207 256.524 5.83638C257.099 5.95069 257.696 5.89278 258.238 5.66996C258.78 5.44715 259.244 5.06946 259.57 4.5847C259.896 4.09995 260.07 3.52992 260.07 2.94679C260.072 2.55989 259.997 2.17643 259.849 1.8185C259.702 1.46058 259.484 1.13528 259.209 0.861346C258.934 0.587417 258.607 0.37028 258.247 0.222449C257.888 0.0746179 257.502 -0.000981159 257.113 9.61372e-06Z" fill="#E2001A"/>
<path d="M266.158 55.9628C266.268 55.9633 266.377 55.9422 266.479 55.9007C266.58 55.8593 266.673 55.7983 266.751 55.7212C266.828 55.6442 266.89 55.5526 266.932 55.4518C266.975 55.3509 266.996 55.2428 266.996 55.1336V49.3222C266.994 49.1023 266.905 48.892 266.748 48.7368C266.592 48.5816 266.38 48.4941 266.158 48.4931H258.398C256.59 48.4931 251.784 48.4072 249.157 47.1187C248.407 46.782 247.744 46.2801 247.218 45.6509C246.798 45.0692 246.585 44.3647 246.613 43.649V0.922612C246.613 0.701668 246.526 0.489607 246.369 0.332331C246.213 0.175056 246.001 0.0852213 245.779 0.0822754H228.819C228.709 0.0832519 228.6 0.105759 228.499 0.148519C228.398 0.19128 228.306 0.253455 228.229 0.331488C228.152 0.409521 228.091 0.501889 228.049 0.603314C228.008 0.704739 227.988 0.813237 227.989 0.922612V42.3157C227.989 44.4819 228.477 46.5174 229.439 47.9179C230.647 49.668 232.252 51.1112 234.125 52.1308C240.54 55.5818 251.855 55.9889 256.26 55.9628H266.158Z" fill="#E2001A"/>
<path d="M39.1543 55.7087C39.3752 55.7087 39.5873 55.622 39.7442 55.4674C39.9012 55.3128 39.9903 55.1029 39.9923 54.8833V7.65264H60.5447C60.7663 7.65168 60.9787 7.56426 61.1362 7.40918C61.2936 7.25411 61.3835 7.04379 61.3864 6.82351V1.03453C61.3835 0.814252 61.2936 0.603935 61.1362 0.448861C60.9787 0.293787 60.7663 0.206358 60.5447 0.205398H0.845543C0.735216 0.203909 0.625698 0.224281 0.523383 0.265328C0.421069 0.306375 0.32801 0.367271 0.249641 0.444461C0.171272 0.521652 0.109163 0.61359 0.0669463 0.714902C0.0247291 0.816215 0.00324878 0.924875 0.00375822 1.03453V6.82351C0.00424871 6.9332 0.0265351 7.04172 0.0693403 7.14282C0.112146 7.24393 0.174627 7.33563 0.253193 7.41268C0.331759 7.48972 0.424865 7.55057 0.527162 7.59175C0.62946 7.63293 0.738935 7.65362 0.849301 7.65264H21.3641V54.8833C21.3636 54.9921 21.3848 55.1 21.4266 55.2006C21.4684 55.3012 21.5299 55.3926 21.6075 55.4693C21.6851 55.5461 21.7773 55.6068 21.8788 55.6479C21.9802 55.689 22.0888 55.7097 22.1983 55.7087H39.1543Z" fill="#E2001A"/>
<path d="M95.133 28.0636C95.1573 28.7758 94.9461 29.4764 94.5317 30.058C94.0109 30.6906 93.3463 31.1911 92.5926 31.5183C89.962 32.8068 85.1631 32.9039 83.3367 32.9039H68.5604V26.4427C68.5306 25.7303 68.738 25.028 69.1504 24.4446C69.6762 23.8183 70.3413 23.3222 71.0933 22.9954C73.7239 21.6957 78.5303 21.6098 80.3491 21.6098H83.3367C85.1631 21.6098 89.9508 21.6957 92.5926 22.9954C93.3447 23.3202 94.0091 23.8167 94.5317 24.4446C94.9429 25.0291 95.1537 25.7297 95.133 26.4427V28.0636ZM113.498 55.7013C113.719 55.7003 113.931 55.6127 114.087 55.4574C114.243 55.3021 114.331 55.0918 114.332 54.8722V49.1019C114.332 48.8816 114.244 48.6705 114.088 48.514C113.931 48.3575 113.72 48.2682 113.498 48.2653H80.3717C78.5528 48.2653 73.7502 48.1644 71.1083 46.8759C70.3563 46.5494 69.692 46.0517 69.1692 45.4231C68.7574 44.8363 68.549 44.1323 68.5754 43.4175V40.3586H85.4863C89.8831 40.3586 101.503 40.1383 107.906 37.0197C110.007 35.9964 111.578 34.8535 112.611 33.4791C114.81 30.5547 115.005 24.7023 112.634 21.5463C111.589 20.1868 110.003 19.0141 107.929 18.002C101.522 14.8797 89.8906 14.6406 85.5051 14.6406H78.2334C73.8291 14.6406 62.2207 14.988 55.8134 18.0991C53.9643 18.9768 52.3527 20.2802 51.1121 21.9011C50.1539 23.1523 49.6728 24.9861 49.6728 26.9618V43.4175C49.6728 45.3745 50.1539 47.2046 51.1121 48.4744C52.354 50.0888 53.964 51.3868 55.8096 52.2615C62.2169 55.3726 73.8253 55.7349 78.2297 55.7088L113.498 55.7013Z" fill="#E2001A"/>
<path d="M199.462 44.2092C199.487 44.9227 199.273 45.6242 198.853 46.2036C198.335 46.8381 197.673 47.3412 196.921 47.6714C194.291 48.9562 189.473 49.0533 187.662 49.0533H184.682C182.852 49.0533 178.06 48.9562 175.418 47.6714C174.663 47.336 173.995 46.834 173.464 46.2036C173.056 45.6193 172.848 44.9201 172.87 44.2092V42.3157C172.849 41.6014 173.057 40.8989 173.464 40.3101C173.998 39.6853 174.666 39.1865 175.418 38.8498C178.049 37.5687 182.852 37.4754 184.682 37.4754H199.462V44.2092ZM216.903 22.1738C215.65 20.5696 214.038 19.2791 212.194 18.4053C205.805 15.2793 194.174 14.917 189.77 14.9394H180.728H160.845C160.734 14.9379 160.625 14.9581 160.522 14.9988C160.419 15.0395 160.326 15.0998 160.246 15.1765C160.167 15.2531 160.104 15.3445 160.06 15.4455C160.017 15.5464 159.993 15.6549 159.992 15.7648V21.5725C159.995 21.7947 160.086 22.0067 160.246 22.1621C160.406 22.3175 160.621 22.4036 160.845 22.4016H187.639C189.451 22.4016 194.242 22.495 196.888 23.7797C197.643 24.1093 198.31 24.6108 198.834 25.2438C199.255 25.8241 199.469 26.5272 199.443 27.2419V30.0206H182.532C178.135 30.0206 166.508 30.241 160.116 33.3596C158.023 34.3792 156.448 35.5407 155.411 36.9077C153.062 40.0337 153.055 45.987 155.411 49.1131C156.444 50.4875 158.041 51.6378 160.112 52.6612C166.501 55.7835 178.12 56.0001 182.528 56.0001H189.781C194.186 56.0001 205.805 55.6752 212.205 52.5416C214.046 51.6604 215.658 50.3681 216.914 48.7657C217.857 47.4959 218.349 45.6658 218.349 43.6938V27.2606C218.349 25.2886 217.857 23.4548 216.914 22.1887" fill="#E2001A"/>
<path d="M122.273 54.8833C122.273 54.9918 122.294 55.0994 122.335 55.1998C122.377 55.3001 122.438 55.3913 122.515 55.4681C122.592 55.5448 122.684 55.6056 122.785 55.6469C122.886 55.6882 122.994 55.7092 123.104 55.7087H140.014C140.125 55.7097 140.234 55.6891 140.336 55.6482C140.438 55.6072 140.531 55.5467 140.609 55.4701C140.688 55.3934 140.75 55.3021 140.793 55.2015C140.836 55.1008 140.859 54.9927 140.86 54.8833V22.3903H151.217C151.44 22.3893 151.653 22.3009 151.811 22.1442C151.969 21.9875 152.058 21.7753 152.059 21.5537V15.7834C152.058 15.5618 151.969 15.3496 151.811 15.1929C151.653 15.0362 151.44 14.9478 151.217 14.9468H140.875V12.381C140.842 11.6665 141.051 10.9616 141.469 10.3791C141.989 9.74698 142.652 9.24649 143.404 8.91879C146.054 7.63028 151.161 7.5369 152.991 7.5369H160.416C160.527 7.5374 160.637 7.5161 160.739 7.47423C160.842 7.43236 160.935 7.37076 161.013 7.29297C161.091 7.21519 161.153 7.12276 161.195 7.02104C161.237 6.91932 161.259 6.81031 161.258 6.70031V0.922527C161.259 0.81235 161.237 0.703157 161.195 0.601224C161.153 0.499291 161.091 0.406625 161.013 0.328543C160.935 0.250462 160.842 0.188506 160.739 0.14623C160.637 0.103953 160.527 0.0821903 160.416 0.0821914H150.849C146.444 0.0560476 134.825 0.455671 128.432 3.92533C126.55 4.92905 124.937 6.36589 123.727 8.1158C122.773 9.52757 122.273 11.5518 122.273 14.2484V54.8833Z" fill="#E2001A"/>
</g>
<defs>
<clipPath id="clip0_2_6410">
<rect width="267" height="56" fill="white"/>
</clipPath>
</defs>
</svg>
