<svg width="82" height="82" viewBox="0 0 82 82" fill="none" xmlns="http://www.w3.org/2000/svg">
<path d="M40.9986 80.5438C18.9263 80.5438 0.966797 62.587 0.966797 40.5121C0.966797 18.4371 18.9263 0.469482 40.9986 0.469482C63.0708 0.469482 81.0304 18.429 81.0304 40.5013C81.0304 62.5735 63.0735 80.5438 40.9986 80.5438ZM40.9986 2.73635C20.1677 2.73635 3.21747 19.6839 3.21747 40.5174C3.21747 61.351 20.1623 78.2985 40.9986 78.2985C61.8349 78.2985 78.7797 61.351 78.7797 40.5174C78.7797 19.6839 61.8295 2.72555 40.9986 2.72555V2.73635Z" fill="#383838"/>
<path d="M40.9986 81.0027C18.6673 81.0027 0.5 62.8327 0.5 40.5013C0.5 18.17 18.6673 0 40.9986 0C63.33 0 81.5 18.17 81.5 40.5013C81.5 62.8327 63.33 81.0027 40.9986 81.0027ZM40.9986 0.939129C19.1828 0.933732 1.43913 18.6882 1.43913 40.5013C1.43913 62.3145 19.1855 80.0636 41.0013 80.0636C62.8172 80.0636 80.5636 62.3172 80.5636 40.5013C80.5636 18.6855 62.8118 0.933733 40.9986 0.933733V0.939129ZM40.9986 78.7466C19.9087 78.7466 2.75337 61.5913 2.75337 40.5013C2.75337 19.4114 19.9087 2.25607 40.9986 2.25607C62.0886 2.25607 79.2466 19.4141 79.2466 40.5013C79.2466 61.5886 62.0886 78.7466 40.9986 78.7466ZM40.9986 3.18441C20.4268 3.18441 3.6925 19.916 3.6925 40.4906C3.6925 61.0651 20.4241 77.7967 40.9986 77.7967C61.5732 77.7967 78.3075 61.0651 78.3075 40.4906C78.3075 19.916 61.5705 3.1952 40.9986 3.1952V3.18441Z" fill="#383838"/>
<path d="M10.6496 58.5985L11.4592 58.1748L10.458 56.2857L9.64838 56.7067L9.17072 55.8054L10.7656 54.9634L10.7953 55.0174C11.0922 55.5301 11.5401 55.3709 12.4361 54.985L13.9284 54.3535L15.2238 56.8039L12.5036 58.2369L12.7221 58.6525L11.1245 59.4944L10.6496 58.5985ZM12.5036 56.0375C12.1876 56.204 11.8378 56.2963 11.4808 56.3073L12.0205 57.3193L13.923 56.3154L13.5344 55.5814L12.5036 56.0375Z" fill="#383838"/>
<path d="M15.9765 59.5965L14.9915 60.2091C13.8284 60.9459 13.2401 60.9621 12.4413 59.8826L13.1618 59.3429C13.545 59.861 13.8392 59.7396 14.7351 59.1729L16.1924 58.2661L17.8116 60.4412L14.6083 62.8133L13.9741 61.9552L16.4029 60.1633L15.9765 59.5965Z" fill="#383838"/>
<path d="M17.9008 64.1468L16.1494 64.4788L15.2858 63.6152L17.2397 63.3453C17.081 63.124 17.01 62.8517 17.0404 62.581C17.0708 62.3104 17.2005 62.0606 17.4043 61.88C18.0439 61.2404 18.7536 61.4509 19.4148 62.1228L20.5779 63.286L17.7659 66.0952L17.013 65.3423L18.06 64.306L17.9008 64.1468ZM18.8615 62.668C18.6079 62.4116 18.3353 62.3792 18.0978 62.6167C17.8603 62.8542 17.8576 63.1375 18.141 63.4263L18.5377 63.823L19.2744 63.0836L18.8615 62.668Z" fill="#383838"/>
<path d="M23.838 65.728C24.6206 66.2677 24.8419 66.8074 24.4641 67.3822C24.3766 67.5248 24.2521 67.641 24.1038 67.7184C23.9556 67.7959 23.7891 67.8317 23.6221 67.8221C23.7343 68.0022 23.7869 68.2132 23.7724 68.4249C23.7578 68.6366 23.6769 68.8383 23.5412 69.0014C23.1202 69.6248 22.4239 69.5735 21.617 69.0284L20.2164 68.0839L22.4374 64.7834L23.838 65.728ZM22.0245 68.3673C22.3295 68.5724 22.5777 68.5912 22.7721 68.316C22.9664 68.0407 22.853 67.7951 22.5481 67.59L22.0569 67.2608L21.5334 68.0353L22.0245 68.3673ZM22.9151 67.0422C22.9607 67.0834 23.0146 67.1144 23.0732 67.1331C23.1317 67.1518 23.1936 67.1578 23.2547 67.1506C23.3158 67.1434 23.3746 67.1233 23.4272 67.0916C23.4799 67.0599 23.5252 67.0173 23.5601 66.9667C23.722 66.713 23.6086 66.5079 23.3658 66.346L22.8881 66.0248L22.4266 66.713L22.9151 67.0422Z" fill="#383838"/>
<path d="M27.0493 70.9989C26.8027 71.2379 26.4851 71.3903 26.1444 71.4331C25.8037 71.4759 25.4583 71.4069 25.1602 71.2364C24.4613 70.8694 23.962 70.0868 24.3992 69.2502L25.0118 68.0871C25.449 67.2532 26.38 67.2154 27.079 67.5824C27.3868 67.7189 27.638 67.9577 27.7899 68.2582C27.9419 68.5587 27.9853 68.9024 27.9129 69.2313L26.971 69.0586C26.9915 68.9313 26.9695 68.8008 26.9086 68.6872C26.8476 68.5736 26.751 68.4832 26.6337 68.4298C26.5799 68.3945 26.5195 68.3704 26.4562 68.3587C26.393 68.3471 26.328 68.3482 26.2651 68.3621C26.2023 68.3759 26.1428 68.4021 26.0903 68.4392C26.0377 68.4764 25.9931 68.5236 25.959 68.5782L25.3626 69.7494C25.3353 69.8084 25.3202 69.8722 25.3184 69.9372C25.3165 70.0021 25.3279 70.0667 25.3519 70.1271C25.3759 70.1875 25.412 70.2423 25.4579 70.2883C25.5038 70.3343 25.5587 70.3704 25.619 70.3944C25.7368 70.4609 25.8729 70.4876 26.0071 70.4706C26.1412 70.4535 26.2663 70.3937 26.3638 70.3L27.0493 70.9989Z" fill="#383838"/>
<path d="M30.4901 72.7175C30.271 72.8888 30.01 72.9983 29.7342 73.0343C29.4584 73.0704 29.178 73.0318 28.9222 72.9226C28.1774 72.6339 27.5944 71.9079 27.9318 71.0336L28.4013 69.8084C28.7441 68.9097 29.6724 68.791 30.4172 69.0743C31.1621 69.3577 31.7072 70 31.3645 70.8932L30.9462 71.9727L29.0031 71.2279L28.9411 71.3925C28.8304 71.6785 29.0436 71.9322 29.3324 72.0456C29.4428 72.0938 29.5635 72.1138 29.6836 72.1039C29.8037 72.094 29.9195 72.0545 30.0205 71.9889L30.4901 72.7175ZM30.4199 70.5424C30.5171 70.286 30.3309 70.0647 30.0799 69.9676C30.0234 69.936 29.9611 69.916 29.8967 69.9088C29.8324 69.9016 29.7672 69.9074 29.7051 69.9257C29.643 69.9441 29.5852 69.9747 29.5351 70.0157C29.485 70.0567 29.4436 70.1073 29.4133 70.1646L29.2865 70.4938L30.2904 70.8797L30.4199 70.5424Z" fill="#383838"/>
<path d="M33.9793 72.2998C34.2302 72.9475 34.5595 73.9514 34.7889 74.5586L33.561 74.2536L33.2587 73.3253L33.2075 72.8935H33.1562L32.8863 73.2605C32.7082 73.4306 32.5193 73.6195 32.1901 73.9271L31.0215 73.6384L32.7487 72.0192C32.6137 71.6387 32.5301 71.2689 31.9742 69.782L33.1427 70.0707L33.4638 71.08L33.5151 71.4821H33.5583L33.7823 71.1502C33.928 71.0099 34.179 70.7319 34.5136 70.3973L35.728 70.6968L33.9793 72.2998Z" fill="#383838"/>
<path d="M38.2783 74.9681L38.4726 71.9105L37.3931 71.8404L37.4525 70.9282L40.6558 71.1333L40.5991 72.0455L39.5197 71.978L39.3254 75.0356L38.2783 74.9681Z" fill="#383838"/>
<path d="M43.7052 72.4156H43.6836L43.492 73.066L42.5933 75.0441L41.4842 75.1143L41.2332 71.1472L42.3127 71.0798L42.4314 72.9688V73.7299H42.453L42.6581 73.0876L43.5217 71.0096L44.6389 70.9395L44.8899 74.9065L43.8104 74.9739L43.6971 73.182L43.7052 72.4156Z" fill="#383838"/>
<path d="M46.6902 71.5493L47.2651 74.5178L46.218 74.7229L45.4597 70.8152L48.6171 70.2026L49.3754 74.1076L48.3202 74.3127L47.7454 71.3442L46.6902 71.5493Z" fill="#383838"/>
<path d="M49.7449 71.3013C49.4588 70.4 50.0768 69.7118 50.8244 69.4636C51.5719 69.2153 52.4813 69.4366 52.7674 70.3352L53.1614 71.5712C53.4528 72.4861 52.8268 73.1499 52.0819 73.3982C51.3371 73.6465 50.425 73.4495 50.1335 72.5346L49.7449 71.3013ZM50.7407 70.91L51.1617 72.2351C51.2242 72.3394 51.32 72.4196 51.4338 72.4626C51.5475 72.5056 51.6724 72.509 51.7883 72.4721C51.9042 72.4353 52.0042 72.3603 52.0722 72.2595C52.1402 72.1587 52.1722 72.0379 52.1629 71.9166L51.7419 70.5916C51.6663 70.3514 51.3587 70.3028 51.1266 70.3784C50.8945 70.454 50.657 70.6699 50.7353 70.91H50.7407Z" fill="#383838"/>
<path d="M54.6026 68.0736C55.4527 67.6662 56.0518 67.7633 56.3432 68.3732C56.4222 68.5209 56.4597 68.6872 56.4516 68.8545C56.4435 69.0218 56.3902 69.1838 56.2974 69.3231C56.5092 69.3175 56.7175 69.3789 56.8924 69.4986C57.0674 69.6183 57.2001 69.7902 57.2716 69.9897C57.5954 70.6671 57.196 71.2392 56.3189 71.6601L54.7942 72.3888L53.0806 68.805L54.6026 68.0736ZM55.2665 69.5363C55.326 69.5191 55.3811 69.4893 55.428 69.4487C55.4749 69.4082 55.5125 69.358 55.5381 69.3016C55.5638 69.2452 55.5769 69.1839 55.5766 69.1219C55.5763 69.0599 55.5625 68.9988 55.5363 68.9426C55.3987 68.6728 55.1666 68.6727 54.9049 68.7942L54.384 69.0425L54.7429 69.79L55.2665 69.5363ZM55.9573 70.9747C56.2893 70.8155 56.4296 70.6104 56.2893 70.3054C56.1489 70.0005 55.8845 69.9708 55.5525 70.13L55.0128 70.3864L55.4176 71.2311L55.9573 70.9747Z" fill="#383838"/>
<path d="M59.3198 66.3057L61.1576 68.6994L60.3102 69.3498L57.8814 66.1951L60.4343 64.2358L62.8631 67.3906L62.0103 68.0436L60.1726 65.6526L59.3198 66.3057Z" fill="#383838"/>
<path d="M62.8926 63.2135L63.6482 64.0959C64.555 65.1322 64.6602 65.7151 63.713 66.6651L63.0761 66.0336C63.5295 65.5775 63.3649 65.3049 62.6686 64.5061L61.5514 63.2027L63.4593 61.2812L66.2794 64.0825L65.5292 64.8381L63.3892 62.7142L62.8926 63.2135Z" fill="#383838"/>
<path d="M66.5954 59.5943L66.5738 59.6078L66.9435 60.1772L67.8611 62.1472L67.1891 63.035L64.0155 60.6386L64.6578 59.7886L66.1663 60.9274L66.7411 61.4266V61.4077L66.3984 60.8437L65.3972 58.8251L66.0746 57.9319L69.2482 60.3283L68.6005 61.1838L67.1675 60.1043L66.5954 59.5943Z" fill="#383838"/>
<path d="M70.3411 58.5041L67.6748 56.9983L67.1513 57.9266L66.3552 57.4787L67.9312 54.6855L68.7273 55.1362L68.201 56.0619L70.8673 57.5677L70.3411 58.5041Z" fill="#383838"/>
<path d="M11.4241 34.6157L8.45556 33.8574L8.18569 34.891L7.30054 34.6643L8.09664 31.5554L8.9791 31.7821L8.70923 32.8157L11.6939 33.5875L11.4241 34.6157Z" fill="#383838"/>
<path d="M12.5171 29.1507C12.6883 29.37 12.7972 29.6313 12.8324 29.9073C12.8675 30.1832 12.8276 30.4635 12.7168 30.7187C12.4307 31.4662 11.7021 32.0491 10.8277 31.7091L9.60252 31.2368C8.70387 30.8914 8.58513 29.963 8.87388 29.2182C9.16264 28.4734 9.79952 27.9283 10.6955 28.2737L11.7749 28.6947L11.0274 30.6377L11.192 30.6998C11.4781 30.8104 11.7318 30.5945 11.8451 30.3085C11.894 30.1982 11.9145 30.0774 11.9046 29.9572C11.8947 29.8369 11.8547 29.7211 11.7884 29.6203L12.5171 29.1507ZM10.342 29.2182C10.0721 29.1184 9.86429 29.3046 9.76714 29.5555C9.66999 29.8065 9.69697 30.1223 9.96144 30.2248L10.2907 30.3516L10.6793 29.3477L10.342 29.2182Z" fill="#383838"/>
<path d="M12.6762 25.9391C13.3643 25.8555 14.4222 25.7826 15.0645 25.7017L14.4681 26.8189L13.4939 26.881L13.0621 26.8243L13.0378 26.8729L13.3266 27.2264C13.448 27.4396 13.5964 27.669 13.8042 28.0657L13.2348 29.129L12.0879 27.0537C11.6858 27.0888 11.308 27.0807 9.72656 27.2534L10.2933 26.1901L11.3538 26.1308L11.7532 26.1793L11.7775 26.1388L11.5077 25.8393C11.4078 25.6639 11.2 25.3535 10.9679 24.946L11.5562 23.8396L12.6762 25.9391Z" fill="#383838"/>
<path d="M14.6248 23.5645L15.9229 24.4956L15.2995 25.3618L12.0611 23.0437L12.6818 22.1774L13.8368 23.0032L14.4629 22.1316L13.3133 21.3031L13.9421 20.4287L17.1804 22.7469L16.5517 23.6212L15.2536 22.6902L14.6248 23.5645Z" fill="#383838"/>
<path d="M15.6882 20.426C14.9973 19.781 15.1997 18.8797 15.7394 18.2914C16.2792 17.7031 17.1697 17.4548 17.8579 18.0998L18.8051 18.9822C19.5067 19.6353 19.2882 20.5232 18.7565 21.1061C18.2249 21.689 17.337 21.9642 16.6354 21.3112L15.6882 20.426ZM16.3628 19.6002L17.3802 20.5474C17.4859 20.6073 17.6086 20.6299 17.7287 20.6114C17.8487 20.5928 17.959 20.5344 18.0417 20.4455C18.1244 20.3565 18.1747 20.2423 18.1844 20.1212C18.1941 20.0002 18.1628 19.8793 18.0954 19.7783L17.0915 18.8311C16.9079 18.6584 16.6192 18.7663 16.4492 18.9444C16.2792 19.1226 16.1793 19.4275 16.3628 19.6002Z" fill="#383838"/>
<path d="M19.5549 16.1082L20.2215 17.0581C21.0311 18.1808 21.0689 18.7691 20.0326 19.6245L19.4605 18.931C19.957 18.5208 19.8221 18.2347 19.2068 17.3712L18.2218 15.9652L20.3106 14.238L22.8419 17.301L22.0188 17.9811L20.1001 15.6575L19.5549 16.1082Z" fill="#383838"/>
<path d="M21.9974 14.6782C21.4928 13.8686 21.9219 13.059 22.5938 12.6272C23.2658 12.1954 24.1914 12.1873 24.6934 12.9861L25.3843 14.0845C25.8943 14.8941 25.4544 15.7037 24.7879 16.1247C24.1213 16.5457 23.1956 16.5888 22.6856 15.7765L21.9974 14.6782ZM22.8637 14.0548L23.6004 15.2287C23.6869 15.3145 23.7999 15.3686 23.921 15.382C24.0421 15.3955 24.1642 15.3675 24.2674 15.3028C24.3706 15.2381 24.4489 15.1403 24.4895 15.0254C24.5301 14.9105 24.5306 14.7853 24.491 14.6701L23.7543 13.4935C23.6736 13.4025 23.561 13.3461 23.4399 13.3361C23.3188 13.326 23.1984 13.3631 23.1039 13.4395C22.888 13.5744 22.7288 13.8389 22.8637 14.0548Z" fill="#383838"/>
<path d="M26.7039 14.9073L24.9794 11.3235L27.2625 10.2224L27.6808 11.0887L26.3584 11.7256L27.6673 14.4458L26.7039 14.9073Z" fill="#383838"/>
<path d="M30.8842 10.4249H30.8545L30.841 11.1022L30.4929 13.2477L29.4431 13.6174L28.1558 9.83928L29.1651 9.49385L29.7723 11.2831L29.9666 12.0198H29.9882L30.0179 11.3451L30.3147 9.11064L31.3753 8.74902L32.6545 12.5271L31.6371 12.8726L31.0596 11.1724L30.8842 10.4249Z" fill="#383838"/>
<path d="M34.9159 10.5224L34.2143 12.1632L33.0161 12.398L33.8796 10.625C33.6075 10.6334 33.3418 10.5407 33.134 10.3648C32.9262 10.1889 32.7909 9.94217 32.7543 9.67233C32.5816 8.78178 33.1456 8.32301 34.0794 8.1368L35.6985 7.81836L36.4596 11.7287L35.4125 11.9338L35.1426 10.4846L34.9159 10.5224ZM34.2224 8.90322C33.8689 8.97338 33.6826 9.17308 33.7555 9.51041C33.8284 9.84774 34.0551 10.0016 34.4464 9.92331L34.9861 9.81536L34.7837 8.78987L34.2224 8.90322Z" fill="#383838"/>
<path d="M39.9272 8.32564H42.1536V9.43749L39.9272 9.45368V11.4804H38.7938L38.756 6.04529L42.4342 6.021V7.11935L39.8948 7.13554L39.9272 8.32564Z" fill="#383838"/>
<path d="M46.1369 11.6907C45.6359 11.8088 45.1188 11.8426 44.6067 11.7905C43.7405 11.6799 42.9876 11.2508 43.1333 10.1201L43.4571 7.56445L44.515 7.69669L44.1992 10.1929C44.1819 10.2798 44.1838 10.3693 44.2047 10.4554C44.2256 10.5414 44.2651 10.6218 44.3204 10.691C44.3756 10.7601 44.4454 10.8164 44.5247 10.8557C44.604 10.8951 44.6909 10.9167 44.7795 10.9189C44.9092 10.9364 45.0411 10.9291 45.1681 10.8973L45.5567 7.82352L46.6064 7.95576L46.1369 11.6907Z" fill="#383838"/>
<path d="M48.5117 12.5384C48.4382 12.5315 48.3652 12.5198 48.2931 12.5033C47.2892 12.2739 46.9951 11.5291 47.1786 10.7357L48.0853 6.79834L49.1243 7.03852L48.2176 10.9732C48.1528 11.2646 48.2904 11.5507 48.7168 11.6478L48.5117 12.5384Z" fill="#383838"/>
<path d="M50.5547 13.1504C50.4791 13.1342 50.4036 13.1207 50.3361 13.0992C49.3538 12.7969 49.1163 12.0197 49.3538 11.256L50.5547 7.4104L51.5748 7.72344L50.3874 11.5825C50.301 11.8686 50.4171 12.1627 50.8354 12.2896L50.5547 13.1504Z" fill="#383838"/>
<path d="M53.4204 14.2463L52.3895 13.7903L54.5808 8.81396L55.6117 9.27004L53.4204 14.2463Z" fill="#383838"/>
<path d="M56.0354 11.3586C56.5333 11.3853 57.0187 11.5247 57.4549 11.7661C58.2375 12.206 58.7664 12.9724 58.251 13.8819L56.9691 16.146L56.0462 15.6252L57.3092 13.3934C57.346 13.3266 57.3683 13.2528 57.3746 13.1767C57.3808 13.1007 57.3708 13.0242 57.3453 12.9522C57.3198 12.8803 57.2794 12.8146 57.2266 12.7595C57.1739 12.7044 57.11 12.6611 57.0393 12.6324C56.9073 12.5576 56.7591 12.516 56.6075 12.511L55.1422 15.1125L54.2111 14.5862L56.0354 11.3586Z" fill="#383838"/>
<path d="M60.2075 18.2533C59.6982 18.1058 59.2187 17.8702 58.7907 17.5571C58.1242 17.0551 57.741 16.3373 58.2996 15.4683L59.1443 14.3484C59.6516 13.6737 60.5422 13.7169 61.1332 14.1541C61.3135 14.2889 61.4626 14.461 61.5704 14.6587L62.4825 13.4497L63.3407 14.0974L60.2075 18.2533ZM61.0792 15.3064C60.9173 14.9448 60.3452 14.6101 60.0267 14.9475L59.0876 16.1888C58.8177 16.5801 59.29 17.0713 59.6948 17.1469L61.0792 15.3064Z" fill="#383838"/>
<path d="M63.0547 20.9657C62.5838 20.7593 62.1513 20.4746 61.7755 20.1238C61.1467 19.5139 60.8202 18.7097 61.6055 17.9028L63.4082 16.0569L64.1692 16.8017L62.4124 18.6017C62.3456 18.6605 62.2925 18.7332 62.2568 18.8148C62.221 18.8963 62.2036 18.9846 62.2057 19.0736C62.2077 19.1626 62.2292 19.25 62.2687 19.3298C62.3081 19.4096 62.3646 19.4798 62.434 19.5354C62.5272 19.6281 62.637 19.7023 62.7578 19.754L64.9168 17.5357L65.6751 18.2752L63.0547 20.9657Z" fill="#383838"/>
<path d="M66.099 23.4404C65.7784 23.5573 65.4287 23.568 65.1017 23.4708C64.7746 23.3736 64.4875 23.1737 64.2828 22.9007C63.7916 22.2827 63.6459 21.3652 64.3826 20.7769L65.4081 19.9673C66.1448 19.3763 67.0138 19.7136 67.5077 20.3316C67.7331 20.5808 67.8661 20.8999 67.8843 21.2355C67.9024 21.5711 67.8047 21.9027 67.6075 22.1748L66.8168 21.635C66.8854 21.5264 66.9167 21.3983 66.906 21.2702C66.8953 21.1422 66.8432 21.0211 66.7574 20.9253C66.7225 20.8711 66.6771 20.8245 66.6238 20.7882C66.5706 20.752 66.5106 20.7268 66.4474 20.7142C66.3842 20.7016 66.3191 20.7019 66.256 20.7149C66.1929 20.728 66.133 20.7537 66.0801 20.7904L65.0573 21.6C65.0086 21.6429 64.9691 21.6954 64.9414 21.7541C64.9136 21.8128 64.8981 21.8766 64.8958 21.9415C64.8936 22.0064 64.9045 22.0711 64.9281 22.1317C64.9517 22.1922 64.9874 22.2473 65.033 22.2935C65.1144 22.4015 65.2284 22.4806 65.3581 22.5189C65.4878 22.5573 65.6264 22.553 65.7535 22.5067L66.099 23.4404Z" fill="#383838"/>
<path d="M66.6627 26.0824C65.7883 25.3861 65.7263 24.4389 66.7679 23.775L69.6744 21.886L70.2141 22.7091L69.5152 23.2488L69.8984 23.8425L69.0888 24.3822L68.7083 23.7885L67.3589 24.6575C66.9784 24.9031 67.0054 25.1972 67.4048 25.6047L66.6627 26.0824Z" fill="#383838"/>
<path d="M70.924 25.6696L67.4158 27.5857L66.903 26.6492L70.3951 24.7332L70.924 25.6696ZM72.0574 24.4148C72.1016 24.4875 72.1303 24.5685 72.1416 24.6529C72.153 24.7372 72.1469 24.8229 72.1235 24.9048C72.1002 24.9866 72.0603 25.0627 72.0062 25.1284C71.9521 25.1941 71.885 25.2479 71.8092 25.2864C71.7357 25.3305 71.6539 25.3589 71.569 25.37C71.484 25.381 71.3977 25.3744 71.3154 25.3506C71.2331 25.3268 71.1566 25.2863 71.0906 25.2316C71.0247 25.1769 70.9707 25.1092 70.9321 25.0327C70.8924 24.9587 70.8679 24.8775 70.86 24.7938C70.8521 24.7102 70.861 24.6258 70.8862 24.5456C70.9113 24.4654 70.9522 24.3911 71.0064 24.3269C71.0606 24.2627 71.1271 24.21 71.202 24.1719C71.2738 24.1308 71.353 24.1044 71.435 24.0943C71.5171 24.0842 71.6004 24.0905 71.68 24.1128C71.7596 24.1352 71.834 24.1731 71.8988 24.2245C71.9636 24.2759 72.0175 24.3396 72.0574 24.4121V24.4148Z" fill="#383838"/>
<path d="M70.2061 27.1645C71.0724 26.7921 71.8253 27.3399 72.1411 28.0685C72.4568 28.7972 72.3354 29.7147 71.4691 30.0871L70.279 30.6026C69.3992 30.9831 68.6733 30.4272 68.3522 29.7039C68.031 28.9807 68.1363 28.0604 69.016 27.6799L70.2061 27.1645ZM70.6919 28.1171L69.4181 28.6568C69.3102 28.7226 69.2313 28.8269 69.1972 28.9486C69.1632 29.0703 69.1765 29.2004 69.2346 29.3126C69.277 29.4302 69.3624 29.5273 69.4736 29.5844C69.5848 29.6415 69.7135 29.6543 69.8337 29.6203L71.1075 29.0805C71.3423 28.9807 71.3585 28.673 71.2613 28.4464C71.1642 28.2197 70.924 28.0173 70.6919 28.1171Z" fill="#383838"/>
<path d="M72.8346 30.7214C73.1708 31.09 73.4206 31.5288 73.566 32.006C73.8142 32.8696 73.655 33.7844 72.6538 34.0732L70.1549 34.7964L69.8607 33.779L72.3219 33.0666C72.3945 33.0446 72.4617 33.0076 72.519 32.9579C72.5764 32.9082 72.6226 32.847 72.6547 32.7782C72.6868 32.7094 72.704 32.6347 72.7052 32.5588C72.7065 32.483 72.6917 32.4077 72.6619 32.3379C72.6213 32.1908 72.5442 32.0562 72.4379 31.9466L69.5693 32.7778L69.2724 31.7523L72.8346 30.7214Z" fill="#383838"/>
<path d="M23.0582 60.5467C22.9205 60.7618 22.8739 61.0228 22.9286 61.2723C22.9832 61.5218 23.1347 61.7393 23.3497 61.8772C23.5052 61.9768 23.6858 62.0301 23.8705 62.031C24.0321 62.0311 24.191 61.9903 24.3325 61.9124C24.4741 61.8346 24.5937 61.7222 24.6801 61.5857C24.9095 61.2295 26.9821 57.9776 29.4648 53.5087C32.1311 57.8265 34.3953 60.9381 34.8378 61.5425C34.911 61.677 35.0157 61.7918 35.1428 61.8772C35.1563 61.8772 35.1725 61.8772 35.186 61.8907C35.3164 61.9648 35.4625 62.0073 35.6124 62.0148C35.6285 62.0148 35.6447 62.031 35.6609 62.031C35.6771 62.031 35.7122 62.0121 35.7392 62.0094C35.854 62.004 35.9667 61.9765 36.0711 61.9285C36.0944 61.9193 36.1169 61.9085 36.1386 61.8961C36.1785 61.8808 36.2173 61.8628 36.2546 61.8421C36.3775 61.7479 36.4748 61.6245 36.538 61.4832C36.9239 60.8814 38.8939 57.7617 41.2552 53.5087C43.6246 57.3354 45.681 60.2337 46.4231 61.2592C46.4486 61.3851 46.4989 61.5046 46.5712 61.6107C46.6435 61.7168 46.7363 61.8074 46.8441 61.8772C46.9997 61.9768 47.1803 62.0301 47.365 62.031C47.3839 62.031 47.4028 62.031 47.4243 62.0148C47.6459 62.0315 47.8663 61.9704 48.0477 61.8421C48.1515 61.7641 48.2386 61.6661 48.3039 61.554C48.3692 61.4418 48.4115 61.3177 48.4282 61.189C49.0786 60.1581 50.857 57.276 52.9593 53.5087C55.747 58.0127 58.111 61.2565 58.4024 61.6532C58.4758 61.7595 58.5697 61.8501 58.6787 61.9194C58.7877 61.9887 58.9095 62.0354 59.0369 62.0567C59.1643 62.0779 59.2947 62.0734 59.4203 62.0433C59.5459 62.0131 59.6642 61.9581 59.7681 61.8813C59.872 61.8046 59.9594 61.7077 60.0251 61.5965C60.0908 61.4853 60.1335 61.362 60.1506 61.234C60.1677 61.106 60.1589 60.9758 60.1247 60.8513C60.0905 60.7267 60.0316 60.6103 59.9515 60.509C58.3917 58.3905 56.2219 55.2088 54.0145 51.5737C58.2405 43.718 63.0333 33.204 62.0105 27.518C61.8783 26.7758 61.4492 25.8178 60.7044 24.5926C59.8929 23.2787 58.7738 22.182 57.4436 21.3973C56.1135 20.6126 54.6124 20.1634 53.0699 20.0886C50.7729 19.9569 48.5029 20.6381 46.6579 22.0127C45.1255 20.8594 43.2838 20.1895 41.3686 20.0886C39.0536 19.9565 36.7666 20.6487 34.9134 22.0424C32.8609 20.4982 30.2844 19.821 27.7379 20.1566C25.1914 20.4922 22.8783 21.8137 21.296 23.837C16.7947 29.6823 22.8801 42.5117 28.2963 51.6115C25.5275 56.6742 23.1203 60.4523 23.0582 60.5467ZM35.6151 59.327C34.1578 57.2814 32.3551 54.5827 30.5281 51.5602C32.0852 48.6673 33.7179 45.4127 35.1158 42.1716C36.606 45.4024 38.2718 48.5492 40.1056 51.598C38.2381 54.9956 36.5488 57.8076 35.6151 59.327ZM47.3569 59.2568C45.9104 57.2193 44.1185 54.5476 42.3212 51.5602C43.8621 48.697 45.4732 45.4802 46.8549 42.2742C48.3353 45.4682 49.9856 48.5806 51.7989 51.598C49.9665 54.947 48.2987 57.724 47.3569 59.2568ZM52.5275 21.983C52.6759 21.983 52.8243 21.983 52.9728 21.9965C54.2046 22.0449 55.4055 22.3969 56.4685 23.0212C57.5316 23.6454 58.424 24.5227 59.0663 25.5749C59.8273 26.8298 60.0621 27.4991 60.1215 27.8418C61.0067 32.7534 56.8183 42.1447 52.8675 49.6091C51.0066 46.4385 49.3394 43.1582 47.875 39.786C49.7155 35.0688 50.8678 30.5782 50.3038 27.5018C50.1716 26.7596 49.7452 25.8016 48.9977 24.5764C48.7277 24.1405 48.4217 23.728 48.0828 23.3432C49.3942 22.4538 50.943 21.9799 52.5275 21.983ZM46.6552 24.6142C46.9172 24.9149 47.1546 25.2362 47.365 25.5749C48.126 26.8298 48.3581 27.4991 48.4201 27.8418C48.8384 30.1626 48.1152 33.4928 46.8252 37.1387C44.9902 32.0679 44.3641 27.5396 46.3233 24.9947C46.4285 24.8625 46.5446 24.7438 46.6552 24.6169V24.6142ZM40.8234 21.983C40.9719 21.983 41.123 21.983 41.2714 21.9965C42.6881 22.0686 44.0573 22.5309 45.2276 23.3324C45.0819 23.4943 44.9308 23.6481 44.7986 23.8235C42.0621 27.3776 43.2468 33.5144 45.8079 39.8211C44.4585 43.1135 42.7989 46.5273 41.1662 49.6118C39.2826 46.4077 37.5991 43.0901 36.1251 39.6781C37.9386 35.0013 39.072 30.5566 38.5242 27.5045C38.392 26.7623 37.9629 25.8043 37.218 24.5791C36.9567 24.1583 36.6616 23.7594 36.3356 23.3863C37.6544 22.4738 39.2197 21.9844 40.8234 21.983ZM34.9026 24.6817C35.1467 24.9675 35.3686 25.2716 35.5665 25.5911C36.3275 26.846 36.5623 27.5153 36.6216 27.858C37.0345 30.1519 36.3329 33.4307 35.0753 37.0334C33.2753 32.0139 32.6735 27.5396 34.6165 25.0163C34.711 24.8814 34.8135 24.7788 34.9026 24.6817ZM22.8234 25.0109C23.5591 24.068 24.5012 23.3063 25.5771 22.7842C26.6531 22.2621 27.8344 21.9936 29.0303 21.9992C29.1788 21.9992 29.3272 21.9992 29.4756 22.0127C30.9157 22.0826 32.3067 22.5578 33.4885 23.3836C33.3563 23.5348 33.2186 23.6751 33.0918 23.837C30.3716 27.3695 31.5293 33.455 34.0579 39.724C32.7086 43.0514 31.0219 46.5057 29.3704 49.6253C24.1323 40.5821 19.3044 29.577 22.8288 24.9974L22.8234 25.0109Z" fill="#383838"/>
</svg>
