<svg width="81" height="81" viewBox="0 0 81 81" fill="none" xmlns="http://www.w3.org/2000/svg">
<path d="M40.5013 80.5301C18.4271 80.5301 0.470886 62.5739 0.470886 40.4997C0.470886 18.4255 18.4271 0.469238 40.5013 0.469238C62.5756 0.469238 80.5318 18.4255 80.5318 40.4997C80.5318 62.5739 62.5729 80.5301 40.5013 80.5301ZM40.5013 2.72523C19.6711 2.72523 2.72149 19.6695 2.72149 40.5051C2.72149 61.3407 19.6684 78.2849 40.5013 78.2849C61.3342 78.2849 78.2812 61.338 78.2812 40.5051C78.2812 19.6722 61.3288 2.72523 40.5013 2.72523Z" fill="#383838"/>
<path d="M40.4986 81C18.168 81 0.00134277 62.8306 0.00134277 40.5C0.00134277 18.1694 18.168 0 40.4986 0C62.8292 0 80.9986 18.1694 80.9986 40.5C80.9986 62.8306 62.8292 81 40.4986 81ZM40.4986 0.939094C18.6862 0.939094 0.937744 18.6848 0.937744 40.5C0.937744 62.3152 18.6862 80.0609 40.4986 80.0609C62.3111 80.0609 80.0595 62.3125 80.0595 40.5C80.0595 18.6875 62.3138 0.939094 40.4986 0.939094ZM40.4986 78.744C19.4121 78.744 2.25464 61.5865 2.25464 40.5C2.25464 19.4134 19.4121 2.25599 40.4986 2.25599C61.5852 2.25599 78.7345 19.4107 78.7345 40.5C78.7345 61.5892 61.5906 78.744 40.4986 78.744ZM40.4986 3.1843C19.9275 3.1843 3.19374 19.9154 3.19374 40.4892C3.19374 61.063 19.9248 77.7941 40.4986 77.7941C61.0725 77.7941 77.8062 61.063 77.8062 40.4892C77.8062 19.9154 61.0698 3.1951 40.4986 3.1951V3.1843Z" fill="#383838"/>
<path d="M50.3375 34.9002C44.4709 24.6457 40.6065 10.5295 40.6065 10.5295H40.2773C40.2773 10.5295 37.4465 24.3057 31.0321 34.4415C24.6176 44.5773 23.5381 51.912 25.4973 57.6491C27.4565 63.3862 33.933 67.0941 40.2773 67.1642C46.6216 67.2344 54.2559 63.9934 55.9425 56.8314C57.6291 49.6694 56.215 45.1629 50.3375 34.9002ZM53.7215 52.252C53.1063 58.0539 47.7712 61.2949 47.7712 61.2949C47.7712 61.2949 51.7489 56.8395 51.479 51.24C51.2092 45.6405 49.3202 40.3783 49.3202 40.3783C49.3202 40.3783 54.326 46.4474 53.7215 52.252Z" fill="#383838"/>
</svg>
