<svg width="81" height="82" viewBox="0 0 81 82" fill="none" xmlns="http://www.w3.org/2000/svg">
<path d="M40.5 80.5351C18.4265 80.5351 0.467346 62.576 0.467346 40.4997C0.467346 18.4235 18.4238 0.467041 40.5 0.467041C62.5763 0.467041 80.5354 18.4262 80.5354 40.4997C80.5354 62.5733 62.5763 80.5351 40.5 80.5351ZM40.5 2.72302C19.6699 2.72302 2.72331 19.6696 2.72331 40.4997C2.72331 61.3298 19.6699 78.2792 40.5 78.2792C61.3301 78.2792 78.2794 61.3325 78.2794 40.4997C78.2794 19.667 61.3328 2.72839 40.5 2.72839V2.72302Z" fill="#383838"/>
<path d="M40.5 81.0027C18.1686 81.0027 0 62.8314 0 40.5C0 18.1686 18.1686 0 40.5 0C62.8314 0 81 18.1686 81 40.5C81 62.8314 62.8314 81.0027 40.5 81.0027ZM40.5 0.93461C18.6843 0.93461 0.934618 18.6843 0.934618 40.5C0.934618 62.3158 18.6923 80.0761 40.5 80.0761C62.3077 80.0761 80.0654 62.3265 80.0654 40.5081C80.0654 18.6896 62.3184 0.93461 40.5 0.93461ZM40.5 78.7467C19.4121 78.7467 2.25328 61.5879 2.25328 40.5C2.25328 19.4121 19.4121 2.25329 40.5 2.25329C61.5879 2.25329 78.7467 19.4121 78.7467 40.5C78.7467 61.5879 61.5879 78.7467 40.5 78.7467ZM40.5 3.1879C19.9277 3.1879 3.1879 19.9277 3.1879 40.5C3.1879 61.0723 19.9277 77.8121 40.5 77.8121C61.0723 77.8121 77.8121 61.075 77.8121 40.5C77.8121 19.925 61.075 3.1879 40.5 3.1879Z" fill="#383838"/>
<path d="M61.5046 38.4747C60.8842 35.0692 58.032 32.2305 54.6373 31.5698C52.8352 31.2153 51.1459 31.5376 49.5157 32.2681C47.5155 33.2057 45.6121 34.3373 43.8328 35.6466C43.2662 36.0468 42.7129 36.4523 42.157 36.8767C42.0917 36.9097 42.0367 36.9599 41.9977 37.0219C41.9588 37.0839 41.9376 37.1553 41.9362 37.2285C41.9348 37.3017 41.9534 37.3738 41.9899 37.4372C42.0264 37.5006 42.0796 37.5529 42.1436 37.5884C42.8938 38.2007 43.6449 38.8104 44.3968 39.4173C44.4349 39.4627 44.4823 39.4994 44.5357 39.525C44.5892 39.5506 44.6474 39.5645 44.7067 39.5658C44.7659 39.5671 44.8247 39.5557 44.8792 39.5324C44.9337 39.5091 44.9826 39.4745 45.0226 39.4308C46.6191 38.2101 48.3112 37.1198 50.0824 36.1704C50.5632 35.9233 51.0627 35.7138 51.5595 35.4989C52.086 35.2775 52.6531 35.1693 53.224 35.1813C53.795 35.1933 54.3571 35.3253 54.8737 35.5688C55.8686 35.9908 56.6988 36.7255 57.2388 37.6616C57.7787 38.5978 57.9988 39.6844 57.8659 40.7569C57.7329 41.8294 57.2541 42.8293 56.5019 43.6053C55.7497 44.3812 54.7652 44.891 53.6973 45.0572C52.8916 45.1641 52.0721 45.0402 51.334 44.7001C49.9876 44.1158 48.699 43.4064 47.4854 42.5811C45.5307 41.2706 43.648 39.8559 41.8454 38.3431C39.6504 36.5186 37.3156 34.869 34.8627 33.4095C33.8287 32.802 32.743 32.287 31.6184 31.8706C30.6457 31.5134 29.6103 31.3589 28.5757 31.4166C27.5412 31.4743 26.5293 31.7431 25.6025 32.2063C22.7771 33.5491 21.1093 35.7809 20.5695 38.8587C20.5346 39.0655 20.5104 39.275 20.4809 39.4845V40.7602C20.548 41.1791 20.5991 41.6008 20.685 42.0144C21.0574 43.6775 21.904 45.1969 23.1224 46.3886C24.3408 47.5803 25.8786 48.3932 27.5496 48.7286C29.3571 49.0804 31.041 48.7286 32.6712 48.0034C34.1244 47.3374 35.5195 46.5513 36.842 45.6535L34.0731 42.9678C33.6139 43.2551 33.1465 43.5345 32.6658 43.795C31.9944 44.1602 31.2934 44.4771 30.5925 44.786C29.3436 45.3366 28.1243 45.1674 26.9453 44.5658C26.0311 44.1049 25.2836 43.3702 24.807 42.4641C24.3303 41.558 24.1484 40.5258 24.2865 39.5113C24.4214 38.4666 24.884 37.4916 25.6079 36.7263C26.3317 35.961 27.2794 35.4448 28.315 35.2518C29.1727 35.1097 30.0534 35.2325 30.8395 35.6037C32.4916 36.3404 34.066 37.2401 35.5395 38.2894C37.4195 39.5651 39.1544 41.0341 40.9323 42.4468C43.1053 44.2236 45.4251 45.813 47.8667 47.1977C48.8293 47.7413 49.842 48.191 50.8908 48.5406C52.5143 49.0606 54.2683 48.9989 55.8512 48.366C59.0553 47.144 60.954 44.8102 61.5691 41.4343C61.6093 41.214 61.6308 40.9885 61.6604 40.7655V39.4898C61.612 39.1488 61.5637 38.8104 61.5046 38.4747Z" fill="#383838"/>
<path d="M34.7715 48.592L31.3446 43.4893C31.2731 43.3826 31.2312 43.2589 31.2232 43.1308C31.2152 43.0027 31.2413 42.8747 31.299 42.76C31.3566 42.6453 31.4437 42.5479 31.5512 42.4779C31.6588 42.4078 31.783 42.3676 31.9113 42.3613L37.86 42.0685C37.9849 42.0623 38.1093 42.0885 38.221 42.1445C38.3328 42.2006 38.4282 42.2846 38.4979 42.3884C38.5677 42.4921 38.6094 42.6122 38.619 42.7369C38.6286 42.8615 38.6059 42.9865 38.5529 43.0998L36.0311 48.5007C35.9762 48.6169 35.8914 48.7164 35.7854 48.789C35.6795 48.8616 35.5561 48.9048 35.428 48.914C35.2998 48.9233 35.1715 48.8984 35.0562 48.8418C34.9408 48.7852 34.8426 48.6991 34.7715 48.592Z" fill="#383838"/>
<path d="M59.8931 25.1434L55.3812 20.653C55.2868 20.5591 55.2191 20.4419 55.1848 20.3133C55.1506 20.1846 55.1511 20.0492 55.1864 19.9209C55.2216 19.7925 55.2903 19.6758 55.3854 19.5827C55.4805 19.4895 55.5986 19.4233 55.7276 19.3907L61.7059 17.8894C61.8316 17.858 61.9632 17.8596 62.0881 17.8939C62.213 17.9283 62.3268 17.9943 62.4187 18.0856C62.5105 18.177 62.5772 18.2904 62.6124 18.4151C62.6475 18.5398 62.6498 18.6714 62.6191 18.7972L61.1527 24.7916C61.1206 24.9206 61.0548 25.0387 60.9622 25.134C60.8696 25.2293 60.7533 25.2984 60.6253 25.3342C60.4973 25.3699 60.3621 25.3711 60.2335 25.3376C60.1049 25.3041 59.9874 25.2371 59.8931 25.1434Z" fill="#383838"/>
<path d="M51.6611 27.2221L53.3322 28.8933C53.649 29.21 54.1625 29.21 54.4793 28.8933L59.8175 23.555C60.1343 23.2383 60.1343 22.7247 59.8175 22.408L58.1464 20.7368C57.8296 20.4201 57.3161 20.4201 56.9993 20.7368L51.6611 26.0751C51.3443 26.3918 51.3443 26.9054 51.6611 27.2221Z" fill="#383838"/>
<path d="M60.2022 56.2304L55.6903 60.7235C55.5958 60.8171 55.5279 60.9341 55.4936 61.0626C55.4593 61.1911 55.4598 61.3264 55.495 61.4546C55.5303 61.5829 55.5991 61.6994 55.6943 61.7923C55.7895 61.8852 55.9076 61.951 56.0367 61.9831L62.015 63.4844C62.1407 63.5158 62.2723 63.5143 62.3972 63.4799C62.522 63.4455 62.6359 63.3795 62.7278 63.2882C62.8196 63.1969 62.8863 63.0834 62.9214 62.9587C62.9565 62.8341 62.9589 62.7024 62.9282 62.5766L61.4618 56.5822C61.4297 56.4532 61.3639 56.3351 61.2713 56.2398C61.1786 56.1445 61.0624 56.0754 60.9344 56.0397C60.8064 56.0039 60.6712 56.0027 60.5426 56.0362C60.4139 56.0697 60.2965 56.1367 60.2022 56.2304Z" fill="#383838"/>
<path d="M58.4539 60.6382L60.1251 58.9671C60.4418 58.6503 60.4418 58.1368 60.1251 57.82L54.7868 52.4818C54.4701 52.165 53.9565 52.165 53.6398 52.4818L51.9686 54.1529C51.6519 54.4697 51.6519 54.9832 51.9686 55.3L57.3069 60.6382C57.6236 60.955 58.1372 60.955 58.4539 60.6382Z" fill="#383838"/>
<path d="M20.8248 24.9364L25.3367 20.446C25.4311 20.3521 25.4988 20.2348 25.5331 20.1062C25.5673 19.9776 25.5668 19.8422 25.5315 19.7138C25.4963 19.5855 25.4276 19.4688 25.3325 19.3756C25.2375 19.2825 25.1193 19.2163 24.9903 19.1837L19.012 17.6824C18.8863 17.651 18.7547 17.6525 18.6298 17.6869C18.5049 17.7212 18.3911 17.7873 18.2992 17.8786C18.2074 17.9699 18.1407 18.0834 18.1055 18.208C18.0704 18.3327 18.0681 18.4644 18.0988 18.5902L19.5652 24.5846C19.5973 24.7136 19.6631 24.8317 19.7557 24.927C19.8483 25.0223 19.9646 25.0913 20.0926 25.1271C20.2206 25.1629 20.3558 25.164 20.4844 25.1305C20.613 25.097 20.7305 25.03 20.8248 24.9364Z" fill="#383838"/>
<path d="M22.5724 20.5292L20.9012 22.2004C20.5845 22.5172 20.5845 23.0307 20.9012 23.3474L26.2395 28.6857C26.5562 29.0024 27.0698 29.0024 27.3865 28.6857L29.0577 27.0145C29.3744 26.6978 29.3744 26.1842 29.0577 25.8675L23.7194 20.5292C23.4027 20.2125 22.8891 20.2125 22.5724 20.5292Z" fill="#383838"/>
<path d="M20.5158 56.023L25.0277 60.5161C25.1214 60.6103 25.1885 60.7275 25.2221 60.8559C25.2558 60.9844 25.2548 61.1195 25.2194 61.2474C25.1839 61.3754 25.1152 61.4916 25.0202 61.5844C24.9252 61.6772 24.8074 61.7432 24.6786 61.7757L18.6922 63.277C18.567 63.3085 18.4357 63.3071 18.3111 63.2729C18.1865 63.2386 18.0729 63.1728 17.9813 63.0817C17.8897 62.9906 17.8232 62.8774 17.7882 62.7531C17.7533 62.6287 17.751 62.4974 17.7818 62.3719L19.2482 56.3775C19.2783 56.2462 19.3433 56.1254 19.4363 56.028C19.5293 55.9305 19.6469 55.8599 19.7767 55.8236C19.9064 55.7873 20.0435 55.7867 20.1736 55.8218C20.3037 55.8569 20.4219 55.9263 20.5158 56.023Z" fill="#383838"/>
<path d="M28.7489 53.9454L27.0777 52.2742C26.761 51.9575 26.2474 51.9575 25.9307 52.2742L20.5924 57.6125C20.2757 57.9292 20.2757 58.4428 20.5924 58.7595L22.2636 60.4307C22.5804 60.7474 23.0939 60.7474 23.4106 60.4307L28.7489 55.0924C29.0656 54.7757 29.0656 54.2621 28.7489 53.9454Z" fill="#383838"/>
</svg>
