<svg width="83" height="81" viewBox="0 0 83 81" fill="none" xmlns="http://www.w3.org/2000/svg">
<path d="M41.4987 80.537C19.4293 80.537 1.46698 62.5801 1.46698 40.5053C1.46698 18.4306 19.4266 0.473633 41.4987 0.473633C63.5708 0.473633 81.5331 18.4306 81.5331 40.5053C81.5331 62.5801 63.5735 80.537 41.4987 80.537ZM41.4987 2.72632C20.67 2.72632 3.72236 19.6821 3.72236 40.5053C3.72236 61.3286 20.6781 78.2816 41.4987 78.2816C62.3193 78.2816 79.275 61.3286 79.275 40.4999C79.275 19.6713 62.3193 2.72094 41.4987 2.72094V2.72632Z" fill="#383838"/>
<path d="M41.4987 81C19.1601 81 0.998657 62.8304 0.998657 40.5C0.998657 18.1696 19.1682 0 41.4987 0C63.8291 0 82.0014 18.1669 82.0014 40.5C82.0014 62.8331 63.8318 81 41.4987 81ZM41.4987 0.936598C19.6823 0.936598 1.93526 18.6836 1.93526 40.5C1.93526 62.3164 19.6823 80.0634 41.4987 80.0634C63.3151 80.0634 81.0621 62.3164 81.0621 40.5C81.0621 18.6836 63.3151 0.936598 41.4987 0.936598ZM41.4987 78.7446C20.4116 78.7446 3.25404 61.587 3.25404 40.5C3.25404 19.413 20.4116 2.25269 41.4987 2.25269C62.5857 2.25269 79.746 19.4103 79.746 40.5C79.746 61.5897 62.5884 78.7446 41.4987 78.7446ZM41.4987 3.18929C20.9257 3.18929 4.19064 19.927 4.19064 40.5C4.19064 61.073 20.9257 77.808 41.4987 77.808C62.0716 77.808 78.8094 61.0703 78.8094 40.5C78.8094 19.9297 62.0716 3.18929 41.4987 3.18929Z" fill="#383838"/>
<path d="M63.4496 24.6694C63.4496 24.6694 60.882 23.9131 53.5479 22.0237C45.786 20.024 42.2091 19.3027 42.2091 19.3027C42.2091 19.3027 38.635 20.024 30.873 22.0237C23.539 23.9077 20.9687 24.6694 20.9687 24.6694C20.9687 24.6694 19.7603 32.0788 23.0868 45.7591C25.7782 56.7938 34.5763 63.9017 42.1957 66.5312C49.8311 63.9017 58.6347 56.8045 61.3207 45.7591C64.6607 32.0922 63.4496 24.6694 63.4496 24.6694ZM38.9579 53.6852L28.6526 43.3799L32.8781 39.1544L38.9579 45.2342L54.3123 29.8933L58.5378 34.1188L38.9579 53.6852Z" fill="#383838"/>
</svg>
