<svg width="81" height="81" viewBox="0 0 81 81" fill="none" xmlns="http://www.w3.org/2000/svg">
<path d="M40.5 80.5329C18.4245 80.5329 0.468628 62.5745 0.468628 40.5016C0.468628 18.4288 18.4245 0.462158 40.5 0.462158C62.5755 0.462158 80.5314 18.4207 80.5314 40.4962C80.5314 62.5718 62.5729 80.5329 40.5 80.5329ZM40.5 2.7234C19.6706 2.7234 2.72184 19.6695 2.72184 40.5016C2.72184 61.3337 19.6706 78.2771 40.5 78.2771C61.3294 78.2771 78.2782 61.331 78.2782 40.5016C78.2782 19.6722 61.3294 2.7234 40.5 2.7234Z" fill="#383838"/>
<path d="M40.5 81C18.1693 81 0.00134277 62.832 0.00134277 40.5014C0.00134277 18.1707 18.1693 0 40.5 0C62.8307 0 80.9987 18.1707 80.9987 40.5014C80.9987 62.832 62.8307 81 40.5 81ZM40.5 0.93458C18.6823 0.93458 0.935926 18.6837 0.935926 40.5014C0.935926 62.3191 18.6823 80.0654 40.5 80.0654C62.3177 80.0654 80.0641 62.3164 80.0641 40.5014C80.0641 18.6863 62.3151 0.93458 40.5 0.93458ZM40.5 78.7468C19.4128 78.7468 2.25455 61.5886 2.25455 40.5014C2.25455 19.4141 19.4128 2.25587 40.5 2.25587C61.5873 2.25587 78.7455 19.4141 78.7455 40.5014C78.7455 61.5886 61.5873 78.7468 40.5 78.7468ZM40.5 3.19045C19.9257 3.19045 3.18914 19.9271 3.18914 40.5014C3.18914 61.0757 19.9257 77.8069 40.5 77.8069C61.0743 77.8069 77.8082 61.073 77.8082 40.5014C77.8082 19.9298 61.0716 3.19045 40.5 3.19045Z" fill="#383838"/>
<path d="M35.9908 20.6035C35.2093 21.1621 34.1109 21.385 33.0367 21.5139C31.9625 21.6428 30.9339 21.7207 30.9339 23.0044V24.3633C31.5713 23.9 32.3428 23.6576 33.1307 23.6731C35.1019 23.6731 36.536 24.7474 36.536 26.912V29.6674C36.536 31.8642 34.6185 32.9438 32.7198 32.9438C30.8211 32.9438 28.8875 31.8696 28.8875 29.6674V22.854C28.8875 20.5659 30.7862 19.9509 32.4781 19.7844C33.7081 19.6528 34.6266 19.4299 35.3463 19.0217L35.9908 20.6035ZM30.9285 26.0741V29.6298C30.9285 30.5778 31.8416 31.045 32.7144 31.045C33.5872 31.045 34.4842 30.5778 34.4842 29.6298V26.8931C34.4842 25.8511 33.7027 25.4778 32.7896 25.4778C32.1219 25.4642 31.4682 25.6699 30.9285 26.0633V26.0741Z" fill="#383838"/>
<path d="M45.428 30.9594C45.0717 31.5603 44.5652 32.0583 43.9583 32.4043C43.3514 32.7504 42.6649 32.9327 41.9663 32.9333C40.0675 32.9333 38.15 31.8349 38.15 29.6193V26.2435C38.15 23.9903 40.0675 22.9294 41.9663 22.9294C43.8086 22.9294 45.7261 24.0037 45.7261 26.2435V28.8861H40.2099V29.5548C40.2099 30.4303 41.0478 30.9513 41.9233 30.9513C42.6296 30.9513 43.3547 30.7096 43.7092 29.9845L45.428 30.9594ZM43.7522 26.2677C43.7522 25.3761 42.8767 24.9114 41.985 24.9114C41.0934 24.9114 40.1776 25.3572 40.2152 26.3052V27.1808H43.7522V26.2677Z" fill="#383838"/>
<path d="M53.6539 25.5427C53.6685 25.9505 53.5723 26.3546 53.3756 26.7121C53.1788 27.0696 52.889 27.3671 52.5367 27.573C52.9999 27.7648 53.3929 28.0945 53.6625 28.5172C53.932 28.94 54.0649 29.4355 54.0433 29.9364C54.0272 31.964 52.2574 32.9335 50.4151 32.9335C48.9085 32.9335 47.4744 32.4098 46.7681 31.1261L48.1619 30.0841C48.4066 30.395 48.7217 30.6434 49.0812 30.8087C49.4408 30.9739 49.8344 31.0515 50.2298 31.0348C51.2906 31.0348 51.9781 30.5863 51.9781 29.7134C51.9781 28.7627 51.3819 28.4647 50.2674 28.4647H48.981V26.8533H50.2486C51.1026 26.8533 51.6612 26.6116 51.6612 25.8113C51.6612 25.1614 51.1026 24.8257 50.1922 24.8257C49.8346 24.8011 49.4763 24.8613 49.1464 25.0013C48.8165 25.1413 48.5242 25.3571 48.2935 25.6314L47.0662 24.5706C47.8289 23.4158 49.075 22.9136 50.4339 22.9136C52.2762 22.9189 53.6539 23.9233 53.6539 25.5427Z" fill="#383838"/>
<path d="M14.7882 40.6626H20.9087C24.5476 40.6626 26.3792 43.2972 26.3792 45.8646C26.3792 48.5019 24.5476 51.0021 20.9302 51.0021H17.3341V56.4727H14.7882V40.6626ZM20.9087 48.6361C22.8503 48.6361 23.8118 47.2289 23.8118 45.9102C23.8118 44.5916 22.8289 43.2515 20.9087 43.2515H17.3341V48.6361H20.9087Z" fill="#383838"/>
<path d="M31.471 47.6961H38.33V50.2878H31.471V56.4646H28.8821V40.6545H39.2887V43.2435H31.471V47.6961Z" fill="#383838"/>
<path d="M41.3461 45.5528C41.3461 42.1367 44.5151 40.4502 47.7324 40.4502C50.9497 40.4502 54.1429 42.1475 54.1429 45.5528V51.5605C54.1429 54.9766 50.9202 56.698 47.7324 56.698C44.5446 56.698 41.3461 54.9766 41.3461 51.5605V45.5528ZM43.9135 51.539C43.9135 53.2363 45.8122 54.1064 47.7324 54.1064C49.6526 54.1064 51.5728 53.2363 51.5728 51.539V45.5985C51.5728 43.7884 49.6526 43.0284 47.7324 43.0284C45.8122 43.0284 43.9135 43.8341 43.9135 45.5985V51.539Z" fill="#383838"/>
<path d="M69.3512 56.4727H66.6495L65.1079 52.3637H59.436L58.0072 56.4727H55.2491L60.9453 40.6626H63.647L69.3512 56.4727ZM62.2317 43.2757L61.5844 45.8216L60.3115 49.7748H64.219L62.9246 45.776L62.323 43.2757H62.2317Z" fill="#383838"/>
</svg>
