<svg width="30" height="31" viewBox="0 0 30 31" fill="none" xmlns="http://www.w3.org/2000/svg">
<path d="M18.606 30.4502C18.5491 30.4502 18.5206 30.4784 18.5206 30.5348V30.6194C18.5206 30.6758 18.5491 30.7039 18.606 30.7039H29.872C29.9573 30.7039 30 30.6758 30 30.6194V30.5348C30 30.4784 29.9573 30.4502 29.872 30.4502H28.5491C27.6672 30.4502 27.0413 30.2951 26.6714 29.985C26.33 29.6748 26.0455 29.1674 25.8179 28.4625C24.3954 24.1205 23.0726 19.7785 21.8492 15.4366C20.6259 11.0946 19.4168 6.72442 18.2219 2.32606C18.0512 1.73397 18.0512 1.24056 18.2219 0.845835C18.3926 0.451113 18.7909 0.253751 19.4168 0.253751H21.9773C22.0626 0.253751 22.1052 0.211458 22.1052 0.126874V0.0845828C22.1052 0.0281943 22.0626 0 21.9773 0H4.90754C4.79374 0 4.73684 0.0281943 4.73684 0.0845828V0.126874C4.73684 0.211458 4.79374 0.253751 4.90754 0.253751H8.06546C8.63444 0.253751 8.91893 0.507502 8.91893 1.01501C8.91893 1.24056 8.89046 1.46612 8.83354 1.69168C8.77668 1.88904 8.6771 2.18509 8.53485 2.57981C8.27883 3.22829 7.96588 4.00363 7.596 4.90587C7.25462 5.7799 6.899 6.68213 6.52916 7.61257C6.15931 8.54301 5.8037 9.44518 5.46231 10.3192C5.12091 11.1933 4.82219 11.9546 4.56615 12.603C4.0256 13.9845 3.47084 15.3379 2.90185 16.663C2.36131 17.9882 1.87766 19.2569 1.45092 20.4693C1.02419 21.6535 0.668563 22.7812 0.384068 23.8527C0.128022 24.8959 0 25.8545 0 26.7285C0 28.2228 0.369844 29.3083 1.10953 29.985C1.84921 30.6617 2.77383 31 3.88335 31C4.79374 31 5.61877 30.7603 6.35846 30.281C7.09815 29.7735 7.79517 29.1533 8.44954 28.4202C9.13229 27.6589 9.77239 26.8554 10.3698 26.0095C10.9957 25.1355 11.6358 24.332 12.2902 23.5989C12.9445 22.8376 13.6273 22.2174 14.3385 21.7381C15.0782 21.2306 15.8748 20.9768 16.7283 20.9768C18.0939 20.9768 19.1465 21.3715 19.8862 22.161C20.6259 22.9504 21.1665 23.8527 21.5078 24.8677C21.7354 25.488 21.9061 26.08 22.0199 26.6439C22.1622 27.2078 22.3044 27.7153 22.4467 28.1665C22.5036 28.4202 22.5178 28.6881 22.4893 28.97C22.4893 29.252 22.404 29.5056 22.2333 29.7312C22.091 29.9286 21.835 30.0978 21.4651 30.2387C21.1237 30.3797 20.6543 30.4502 20.0569 30.4502H18.606ZM7.25462 13.2797C8.87627 13.2797 10.0569 13.6462 10.7966 14.3793C11.5362 15.0842 11.9061 16.2401 11.9061 17.8472V22.2456C11.2802 22.6966 10.6686 23.176 10.0711 23.6835C9.47371 24.191 8.89046 24.6562 8.32149 25.0791C7.75251 25.5021 7.19772 25.8544 6.65718 26.1364C6.11664 26.3902 5.5761 26.517 5.03556 26.517C4.23898 26.517 3.51351 26.2774 2.85918 25.7981C2.20484 25.2906 1.87766 24.4589 1.87766 23.3028C1.87766 22.598 1.99147 21.7945 2.21906 20.8922C2.47511 19.9618 2.7596 19.0313 3.07255 18.101C3.41394 17.1705 3.75533 16.2824 4.09673 15.4366C4.43812 14.5907 4.72261 13.8718 4.95021 13.2797H7.25462ZM8.91893 3.04502C9.26034 2.19918 9.68707 1.64938 10.1991 1.39563C10.7397 1.14188 11.3087 1.00091 11.9061 0.972714V8.33154C11.9061 9.99499 11.5505 11.1933 10.8393 11.9264C10.128 12.6594 8.93312 13.0259 7.25462 13.0259H5.03556C5.46231 11.9264 5.88904 10.8267 6.31579 9.72714C6.74253 8.5994 7.14083 7.57027 7.51068 6.63984C7.88049 5.70941 8.17924 4.91997 8.40681 4.27149C8.6629 3.62301 8.83354 3.21419 8.91893 3.04502ZM19.5875 18.0587C19.6444 18.256 19.7013 18.4957 19.7581 18.7777C19.8151 19.0595 19.8435 19.3274 19.8435 19.5812C19.872 19.8349 19.8577 20.0746 19.8009 20.3001C19.7724 20.4975 19.687 20.6385 19.5448 20.7231C19.4879 20.7513 19.3883 20.7653 19.2461 20.7653C18.9616 20.7653 18.6202 20.709 18.2219 20.5962C17.852 20.4552 17.34 20.3847 16.6856 20.3847C15.889 20.3847 15.1209 20.5539 14.3812 20.8922C13.6415 21.2024 12.9018 21.5971 12.1621 22.0764V17.8472C12.1621 16.2119 12.5036 15.0419 13.1863 14.337C13.8976 13.6321 15.0925 13.2797 16.771 13.2797H18.2646C18.4921 14.0691 18.7055 14.8727 18.9047 15.6903C19.1323 16.4797 19.3599 17.2692 19.5875 18.0587ZM16.771 13.0259C15.1493 13.0259 13.9687 12.6453 13.229 11.8841C12.5178 11.1228 12.1621 9.9386 12.1621 8.33154V0.972714C13.1579 1.00091 13.8976 1.21237 14.3812 1.60709C14.8649 2.00182 15.2063 2.53752 15.4054 3.21419C15.7183 4.28558 16.1167 5.68121 16.6003 7.4011C17.0839 9.12094 17.6102 10.9959 18.1792 13.0259H16.771Z" fill="#E8E4D9"/>
</svg>
